  0
SECTION
  2
HEADER
  9
$ACADVER
  1
AC1014
  9
$HANDSEED
  5
FFFF
  9
$MEASUREMENT
 70
     1
  0
ENDSEC
  0
SECTION
  2
TABLES
  0
TABLE
  2
VPORT
  5
8
330
0
100
AcDbSymbolTable
 70
     4
  0
VPORT
  5
2E
330
8
100
AcDbSymbolTableRecord
100
AcDbViewportTableRecord
  2
*ACTIVE
 70
     0
 10
0.0
 20
0.0
 11
1.0
 21
1.0
 12
210.0
 22
148.5
 13
0.0
 23
0.0
 14
10.0
 24
10.0
 15
10.0
 25
10.0
 16
0.0
 26
0.0
 36
1.0
 17
0.0
 27
0.0
 37
0.0
 40
341.0
 41
1.24
 42
50.0
 43
0.0
 44
0.0
 50
0.0
 51
0.0
 71
     0
 72
   100
 73
     1
 74
     3
 75
     0
 76
     0
 77
     0
 78
     0
  0
ENDTAB
  0
TABLE
  2
LTYPE
  5
5
330
0
100
AcDbSymbolTable
 70
     1
  0
LTYPE
  5
14
330
5
100
AcDbSymbolTableRecord
100
AcDbLinetypeTableRecord
  2
BYBLOCK
 70
     0
  3

 72
    65
 73
     0
 40
0.0
  0
LTYPE
  5
15
330
5
100
AcDbSymbolTableRecord
100
AcDbLinetypeTableRecord
  2
BYLAYER
 70
     0
  3

 72
    65
 73
     0
 40
0.0
  0
LTYPE
  5
16
330
5
100
AcDbSymbolTableRecord
100
AcDbLinetypeTableRecord
  2
CONTINUOUS
 70
     0
  3
Solid line
 72
    65
 73
     0
 40
0.0
  0
ENDTAB
  0
TABLE
  2
LAYER
  5
2
100
AcDbSymbolTable
 70
1
  0
LAYER
  5
50
100
AcDbSymbolTableRecord
100
AcDbLayerTableRecord
  2
0
 70
0
  6
CONTINUOUS
  0
ENDTAB
  0
TABLE
  2
STYLE
  5
3
330
0
100
AcDbSymbolTable
 70
     1
  0
STYLE
  5
11
330
3
100
AcDbSymbolTableRecord
100
AcDbTextStyleTableRecord
  2
STANDARD
 70
     0
 40
0.0
 41
1.0
 50
0.0
 71
     0
 42
2.5
  3
txt
  4

  0
ENDTAB
  0
TABLE
  2
VIEW
  5
6
330
0
100
AcDbSymbolTable
 70
     0
  0
ENDTAB
  0
TABLE
  2
UCS
  5
7
330
0
100
AcDbSymbolTable
 70
     0
  0
ENDTAB
  0
TABLE
  2
APPID
  5
9
330
0
100
AcDbSymbolTable
 70
     2
  0
APPID
  5
12
330
9
100
AcDbSymbolTableRecord
100
AcDbRegAppTableRecord
  2
ACAD
 70
     0
  0
ENDTAB
  0
TABLE
  2
DIMSTYLE
  5
A
330
0
100
AcDbSymbolTable
 70
     1
  0
DIMSTYLE
105
27
330
A
100
AcDbSymbolTableRecord
100
AcDbDimStyleTableRecord
  2
ISO-25
 70
     0
  3

  4

  5

  6

  7

 40
1.0
 41
2.5
 42
0.625
 43
3.75
 44
1.25
 45
0.0
 46
0.0
 47
0.0
 48
0.0
140
2.5
141
2.5
142
0.0
143
0.03937007874016
144
1.0
145
0.0
146
1.0
147
0.625
 71
     0
 72
     0
 73
     0
 74
     0
 75
     0
 76
     0
 77
     1
 78
     8
170
     0
171
     3
172
     1
173
     0
174
     0
175
     0
176
     0
177
     0
178
     0
270
     2
271
     2
272
     2
273
     2
274
     3
340
11
275
     0
280
     0
281
     0
282
     0
283
     0
284
     8
285
     0
286
     0
287
     3
288
     0
  0
ENDTAB
  0
TABLE
  2
BLOCK_RECORD
  5
1
330
0
100
AcDbSymbolTable
 70
     1
  0
BLOCK_RECORD
  5
1F
330
1
100
AcDbSymbolTableRecord
100
AcDbBlockTableRecord
  2
*MODEL_SPACE
  0
BLOCK_RECORD
  5
1B
330
1
100
AcDbSymbolTableRecord
100
AcDbBlockTableRecord
  2
*PAPER_SPACE
  0
ENDTAB
  0
ENDSEC
  0
SECTION
  2
BLOCKS
  0
BLOCK
  5
20
330
1F
100
AcDbEntity
  8
0
100
AcDbBlockBegin
  2
*MODEL_SPACE
 70
     0
 10
0.0
 20
0.0
 30
0.0
  3
*MODEL_SPACE
  1

  0
ENDBLK
  5
21
330
1F
100
AcDbEntity
  8
0
100
AcDbBlockEnd
  0
BLOCK
  5
1C
330
1B
100
AcDbEntity
 67
     1
  8
0
100
AcDbBlockBegin
  2
*PAPER_SPACE
  1

  0
ENDBLK
  5
1D
330
1B
100
AcDbEntity
 67
     1
  8
0
100
AcDbBlockEnd
  0
ENDSEC
  0
SECTION
  2
ENTITIES
  0
SPLINE
  5
100
100
AcDbEntity
  8
0
 62
7
100
AcDbSpline
 70
8
 71
3
 72
8
 73
4
 74
0
 40
0
 40
0
 40
0
 40
0
 40
1
 40
1
 40
1
 40
1
 10
272.380069
 20
196.147018
 30
0.0
 10
269.035101
 20
199.357946
 30
0.0
 10
265.958213
 20
202.342494
 30
0.0
 10
263.149398
 20
205.145354
 30
0.0
  0
SPLINE
  5
101
100
AcDbEntity
  8
0
 62
7
100
AcDbSpline
 70
8
 71
3
 72
8
 73
4
 74
0
 40
0
 40
0
 40
0
 40
0
 40
1
 40
1
 40
1
 40
1
 10
275.873964
 20
207.870770
 30
0.0
 10
276.410109
 20
207.986938
 30
0.0
 10
276.880726
 20
208.296710
 30
0.0
 10
277.193476
 20
208.731586
 30
0.0
  0
LWPOLYLINE
  5
102
100
AcDbEntity
  8
0
 62
7
100
AcDbPolyline
 90
2
 70
0
 10
263.149398
 20
205.145354
 30
0.0
 10
275.873964
 20
207.870770
 30
0.0
  0
SPLINE
  5
103
100
AcDbEntity
  8
0
 62
7
100
AcDbSpline
 70
8
 71
3
 72
8
 73
4
 74
0
 40
0
 40
0
 40
0
 40
0
 40
1
 40
1
 40
1
 40
1
 10
281.935408
 20
215.305349
 30
0.0
 10
284.053189
 20
218.236288
 30
0.0
 10
283.987662
 20
220.768096
 30
0.0
 10
283.564699
 20
222.373560
 30
0.0
  0
SPLINE
  5
104
100
AcDbEntity
  8
0
 62
7
100
AcDbSpline
 70
8
 71
3
 72
8
 73
4
 74
0
 40
0
 40
0
 40
0
 40
0
 40
1
 40
1
 40
1
 40
1
 10
283.564699
 20
222.373560
 30
0.0
 10
282.447725
 20
226.585295
 30
0.0
 10
277.932173
 20
228.756692
 30
0.0
 10
277.422833
 20
228.994980
 30
0.0
  0
SPLINE
  5
105
100
AcDbEntity
  8
0
 62
7
100
AcDbSpline
 70
8
 71
3
 72
8
 73
4
 74
0
 40
0
 40
0
 40
0
 40
0
 40
1
 40
1
 40
1
 40
1
 10
277.422833
 20
228.994980
 30
0.0
 10
277.083271
 20
229.137952
 30
0.0
 10
276.699031
 20
229.209439
 30
0.0
 10
276.350537
 20
229.185610
 30
0.0
  0
LWPOLYLINE
  5
106
100
AcDbEntity
  8
0
 62
7
100
AcDbPolyline
 90
2
 70
0
 10
277.193476
 20
208.731586
 30
0.0
 10
281.935408
 20
215.305349
 30
0.0
  0
SPLINE
  5
107
100
AcDbEntity
  8
0
 62
7
100
AcDbSpline
 70
8
 71
3
 72
8
 73
4
 74
0
 40
0
 40
0
 40
0
 40
0
 40
1
 40
1
 40
1
 40
1
 10
254.448916
 20
227.538446
 30
0.0
 10
253.594059
 20
227.472919
 30
0.0
 10
252.858347
 20
226.921877
 30
0.0
 10
252.557507
 20
226.114677
 30
0.0
  0
LWPOLYLINE
  5
108
100
AcDbEntity
  8
0
 62
7
100
AcDbPolyline
 90
2
 70
0
 10
276.350537
 20
229.185610
 30
0.0
 10
254.448916
 20
227.538446
 30
0.0
  0
SPLINE
  5
109
100
AcDbEntity
  8
0
 62
7
100
AcDbSpline
 70
8
 71
3
 72
8
 73
4
 74
0
 40
0
 40
0
 40
0
 40
0
 40
1
 40
1
 40
1
 40
1
 10
250.156758
 20
219.689844
 30
0.0
 10
248.301087
 20
222.224629
 30
0.0
 10
246.755196
 20
224.676015
 30
0.0
 10
245.617371
 20
227.103571
 30
0.0
  0
SPLINE
  5
10a
100
AcDbEntity
  8
0
 62
7
100
AcDbSpline
 70
8
 71
3
 72
8
 73
4
 74
0
 40
0
 40
0
 40
0
 40
0
 40
1
 40
1
 40
1
 40
1
 10
245.617371
 20
227.103571
 30
0.0
 10
244.738687
 20
228.968173
 30
0.0
 10
243.076628
 20
232.152292
 30
0.0
 10
240.872469
 20
235.932132
 30
0.0
  0
SPLINE
  5
10b
100
AcDbEntity
  8
0
 62
7
100
AcDbSpline
 70
8
 71
3
 72
8
 73
4
 74
0
 40
0
 40
0
 40
0
 40
0
 40
1
 40
1
 40
1
 40
1
 10
240.872469
 20
235.932132
 30
0.0
 10
240.848619
 20
235.979787
 30
0.0
 10
240.815844
 20
236.042340
 30
0.0
 10
240.809919
 20
236.060211
 30
0.0
  0
SPLINE
  5
10c
100
AcDbEntity
  8
0
 62
7
100
AcDbSpline
 70
8
 71
3
 72
8
 73
4
 74
0
 40
0
 40
0
 40
0
 40
0
 40
1
 40
1
 40
1
 40
1
 10
240.809919
 20
236.060211
 30
0.0
 10
240.789069
 20
236.104889
 30
0.0
 10
240.750370
 20
236.125739
 30
0.0
 10
240.729497
 20
236.167441
 30
0.0
  0
SPLINE
  5
10d
100
AcDbEntity
  8
0
 62
7
100
AcDbSpline
 70
8
 71
3
 72
8
 73
4
 74
0
 40
0
 40
0
 40
0
 40
0
 40
1
 40
1
 40
1
 40
1
 10
240.729497
 20
236.167441
 30
0.0
 10
236.604140
 20
243.193951
 30
0.0
 10
230.614186
 20
252.168463
 30
0.0
 10
224.159563
 20
258.632018
 30
0.0
  0
SPLINE
  5
10e
100
AcDbEntity
  8
0
 62
7
100
AcDbSpline
 70
8
 71
3
 72
8
 73
4
 74
0
 40
0
 40
0
 40
0
 40
0
 40
1
 40
1
 40
1
 40
1
 10
224.159563
 20
258.632018
 30
0.0
 10
224.123788
 20
258.667763
 30
0.0
 10
224.117863
 20
258.715418
 30
0.0
 10
224.085088
 20
258.751162
 30
0.0
  0
SPLINE
  5
10f
100
AcDbEntity
  8
0
 62
7
100
AcDbSpline
 70
8
 71
3
 72
8
 73
4
 74
0
 40
0
 40
0
 40
0
 40
0
 40
1
 40
1
 40
1
 40
1
 10
224.085088
 20
258.751162
 30
0.0
 10
224.043388
 20
258.795839
 30
0.0
 10
223.968928
 20
258.837541
 30
0.0
 10
223.906378
 20
258.882220
 30
0.0
  0
SPLINE
  5
110
100
AcDbEntity
  8
0
 62
7
100
AcDbSpline
 70
8
 71
3
 72
8
 73
4
 74
0
 40
0
 40
0
 40
0
 40
0
 40
1
 40
1
 40
1
 40
1
 10
223.906378
 20
258.882220
 30
0.0
 10
219.995475
 20
262.751417
 30
0.0
 10
215.926713
 20
265.700228
 30
0.0
 10
212.009863
 20
266.653379
 30
0.0
  0
SPLINE
  5
111
100
AcDbEntity
  8
0
 62
7
100
AcDbSpline
 70
8
 71
3
 72
8
 73
4
 74
0
 40
0
 40
0
 40
0
 40
0
 40
1
 40
1
 40
1
 40
1
 10
212.009863
 20
266.653379
 30
0.0
 10
199.940586
 20
269.581339
 30
0.0
 10
157.105384
 20
269.953665
 30
0.0
 10
144.258694
 20
269.998344
 30
0.0
  0
LWPOLYLINE
  5
112
100
AcDbEntity
  8
0
 62
7
100
AcDbPolyline
 90
2
 70
0
 10
252.557507
 20
226.114677
 30
0.0
 10
250.156758
 20
219.689844
 30
0.0
  0
SPLINE
  5
113
100
AcDbEntity
  8
0
 62
7
100
AcDbSpline
 70
8
 71
3
 72
8
 73
4
 74
0
 40
0
 40
0
 40
0
 40
0
 40
1
 40
1
 40
1
 40
1
 10
142.817060
 20
269.998344
 30
0.0
 10
129.976326
 20
269.953666
 30
0.0
 10
87.147086
 20
269.581339
 30
0.0
 10
75.074832
 20
266.653379
 30
0.0
  0
SPLINE
  5
114
100
AcDbEntity
  8
0
 62
7
100
AcDbSpline
 70
8
 71
3
 72
8
 73
4
 74
0
 40
0
 40
0
 40
0
 40
0
 40
1
 40
1
 40
1
 40
1
 10
75.074832
 20
266.653379
 30
0.0
 10
71.160954
 20
265.700228
 30
0.0
 10
67.092191
 20
262.751417
 30
0.0
 10
63.187250
 20
258.888177
 30
0.0
  0
SPLINE
  5
115
100
AcDbEntity
  8
0
 62
7
100
AcDbSpline
 70
8
 71
3
 72
8
 73
4
 74
0
 40
0
 40
0
 40
0
 40
0
 40
1
 40
1
 40
1
 40
1
 10
63.187250
 20
258.888177
 30
0.0
 10
63.124700
 20
258.843500
 30
0.0
 10
63.050235
 20
258.801798
 30
0.0
 10
63.005556
 20
258.757119
 30
0.0
  0
SPLINE
  5
116
100
AcDbEntity
  8
0
 62
7
100
AcDbSpline
 70
8
 71
3
 72
8
 73
4
 74
0
 40
0
 40
0
 40
0
 40
0
 40
1
 40
1
 40
1
 40
1
 10
63.005556
 20
258.757119
 30
0.0
 10
62.969811
 20
258.721374
 30
0.0
 10
62.957901
 20
258.670739
 30
0.0
 10
62.928112
 20
258.632018
 30
0.0
  0
SPLINE
  5
117
100
AcDbEntity
  8
0
 62
7
100
AcDbSpline
 70
8
 71
3
 72
8
 73
4
 74
0
 40
0
 40
0
 40
0
 40
0
 40
1
 40
1
 40
1
 40
1
 10
62.928112
 20
258.632018
 30
0.0
 10
56.491365
 20
252.183356
 30
0.0
 10
50.510343
 20
243.241608
 30
0.0
 10
46.384986
 20
236.227013
 30
0.0
  0
SPLINE
  5
118
100
AcDbEntity
  8
0
 62
7
100
AcDbSpline
 70
8
 71
3
 72
8
 73
4
 74
0
 40
0
 40
0
 40
0
 40
0
 40
1
 40
1
 40
1
 40
1
 10
46.384986
 20
236.227013
 30
0.0
 10
46.352219
 20
236.167440
 30
0.0
 10
46.301585
 20
236.134677
 30
0.0
 10
46.268821
 20
236.072126
 30
0.0
  0
SPLINE
  5
119
100
AcDbEntity
  8
0
 62
7
100
AcDbSpline
 70
8
 71
3
 72
8
 73
4
 74
0
 40
0
 40
0
 40
0
 40
0
 40
1
 40
1
 40
1
 40
1
 10
46.268821
 20
236.072126
 30
0.0
 10
46.256903
 20
236.045321
 30
0.0
 10
46.218181
 20
235.964896
 30
0.0
 10
46.182441
 20
235.881496
 30
0.0
  0
SPLINE
  5
11a
100
AcDbEntity
  8
0
 62
7
100
AcDbSpline
 70
8
 71
3
 72
8
 73
4
 74
0
 40
0
 40
0
 40
0
 40
0
 40
1
 40
1
 40
1
 40
1
 10
46.182441
 20
235.881496
 30
0.0
 10
43.990194
 20
232.128464
 30
0.0
 10
42.343030
 20
228.965194
 30
0.0
 10
41.467322
 20
227.109528
 30
0.0
  0
SPLINE
  5
11b
100
AcDbEntity
  8
0
 62
7
100
AcDbSpline
 70
8
 71
3
 72
8
 73
4
 74
0
 40
0
 40
0
 40
0
 40
0
 40
1
 40
1
 40
1
 40
1
 10
41.467322
 20
227.109528
 30
0.0
 10
40.320563
 20
224.687929
 30
0.0
 10
38.786586
 20
222.230586
 30
0.0
 10
36.924962
 20
219.698779
 30
0.0
  0
LWPOLYLINE
  5
11c
100
AcDbEntity
  8
0
 62
7
100
AcDbPolyline
 90
2
 70
0
 10
144.258694
 20
269.998344
 30
0.0
 10
142.817060
 20
269.998344
 30
0.0
  0
SPLINE
  5
11d
100
AcDbEntity
  8
0
 62
7
100
AcDbSpline
 70
8
 71
3
 72
8
 73
4
 74
0
 40
0
 40
0
 40
0
 40
0
 40
1
 40
1
 40
1
 40
1
 10
34.530170
 20
226.117655
 30
0.0
 10
34.226354
 20
226.924855
 30
0.0
 10
33.490640
 20
227.475896
 30
0.0
 10
32.638762
 20
227.541424
 30
0.0
  0
LWPOLYLINE
  5
11e
100
AcDbEntity
  8
0
 62
7
100
AcDbPolyline
 90
2
 70
0
 10
36.924962
 20
219.698779
 30
0.0
 10
34.530170
 20
226.117655
 30
0.0
  0
SPLINE
  5
11f
100
AcDbEntity
  8
0
 62
7
100
AcDbSpline
 70
8
 71
3
 72
8
 73
4
 74
0
 40
0
 40
0
 40
0
 40
0
 40
1
 40
1
 40
1
 40
1
 10
10.737139
 20
229.188588
 30
0.0
 10
10.394601
 20
229.212416
 30
0.0
 10
9.998448
 20
229.140933
 30
0.0
 10
9.661866
 20
228.997959
 30
0.0
  0
SPLINE
  5
120
100
AcDbEntity
  8
0
 62
7
100
AcDbSpline
 70
8
 71
3
 72
8
 73
4
 74
0
 40
0
 40
0
 40
0
 40
0
 40
1
 40
1
 40
1
 40
1
 10
9.661866
 20
228.997959
 30
0.0
 10
9.152526
 20
228.759670
 30
0.0
 10
4.636973
 20
226.588274
 30
0.0
 10
3.522978
 20
222.376538
 30
0.0
  0
SPLINE
  5
121
100
AcDbEntity
  8
0
 62
7
100
AcDbSpline
 70
8
 71
3
 72
8
 73
4
 74
0
 40
0
 40
0
 40
0
 40
0
 40
1
 40
1
 40
1
 40
1
 10
3.522978
 20
222.376538
 30
0.0
 10
3.100017
 20
220.771074
 30
0.0
 10
3.034488
 20
218.239267
 30
0.0
 10
5.149292
 20
215.308328
 30
0.0
  0
LWPOLYLINE
  5
122
100
AcDbEntity
  8
0
 62
7
100
AcDbPolyline
 90
2
 70
0
 10
32.638762
 20
227.541424
 30
0.0
 10
10.737139
 20
229.188588
 30
0.0
  0
SPLINE
  5
123
100
AcDbEntity
  8
0
 62
7
100
AcDbSpline
 70
8
 71
3
 72
8
 73
4
 74
0
 40
0
 40
0
 40
0
 40
0
 40
1
 40
1
 40
1
 40
1
 10
9.894197
 20
208.734565
 30
0.0
 10
10.209928
 20
208.299687
 30
0.0
 10
10.680546
 20
207.989915
 30
0.0
 10
11.210736
 20
207.873748
 30
0.0
  0
LWPOLYLINE
  5
124
100
AcDbEntity
  8
0
 62
7
100
AcDbPolyline
 90
2
 70
0
 10
5.149292
 20
215.308328
 30
0.0
 10
9.894197
 20
208.734565
 30
0.0
  0
SPLINE
  5
125
100
AcDbEntity
  8
0
 62
7
100
AcDbSpline
 70
8
 71
3
 72
8
 73
4
 74
0
 40
0
 40
0
 40
0
 40
0
 40
1
 40
1
 40
1
 40
1
 10
23.932323
 20
205.148332
 30
0.0
 10
21.126485
 20
202.339516
 30
0.0
 10
18.037680
 20
199.349006
 30
0.0
 10
14.680802
 20
196.126168
 30
0.0
  0
SPLINE
  5
126
100
AcDbEntity
  8
0
 62
7
100
AcDbSpline
 70
8
 71
3
 72
8
 73
4
 74
0
 40
0
 40
0
 40
0
 40
0
 40
1
 40
1
 40
1
 40
1
 10
14.680802
 20
196.126168
 30
0.0
 10
14.603358
 20
196.063618
 30
0.0
 10
14.537829
 20
195.989150
 30
0.0
 10
14.466342
 20
195.914683
 30
0.0
  0
SPLINE
  5
127
100
AcDbEntity
  8
0
 62
7
100
AcDbSpline
 70
8
 71
3
 72
8
 73
4
 74
0
 40
0
 40
0
 40
0
 40
0
 40
1
 40
1
 40
1
 40
1
 10
14.466342
 20
195.914683
 30
0.0
 10
2.316654
 20
184.047958
 30
0.0
 10
4.112748
 20
136.750814
 30
0.0
 10
6.531368
 20
102.175266
 30
0.0
  0
LWPOLYLINE
  5
128
100
AcDbEntity
  8
0
 62
7
100
AcDbPolyline
 90
2
 70
0
 10
11.210736
 20
207.873748
 30
0.0
 10
23.932323
 20
205.148332
 30
0.0
  0
SPLINE
  5
129
100
AcDbEntity
  8
0
 62
7
100
AcDbSpline
 70
8
 71
3
 72
8
 73
4
 74
0
 40
0
 40
0
 40
0
 40
0
 40
1
 40
1
 40
1
 40
1
 10
6.751785
 20
98.910721
 30
0.0
 10
6.829228
 20
97.731196
 30
0.0
 10
6.966243
 20
95.944037
 30
0.0
 10
9.742296
 20
94.034756
 30
0.0
  0
SPLINE
  5
12a
100
AcDbEntity
  8
0
 62
7
100
AcDbSpline
 70
8
 71
3
 72
8
 73
4
 74
0
 40
0
 40
0
 40
0
 40
0
 40
1
 40
1
 40
1
 40
1
 10
9.742296
 20
94.034756
 30
0.0
 10
9.664852
 20
90.743413
 30
0.0
 10
9.712506
 20
78.054592
 30
0.0
 10
14.802932
 20
72.746725
 30
0.0
  0
SPLINE
  5
12b
100
AcDbEntity
  8
0
 62
7
100
AcDbSpline
 70
8
 71
3
 72
8
 73
4
 74
0
 40
0
 40
0
 40
0
 40
0
 40
1
 40
1
 40
1
 40
1
 10
14.802932
 20
72.746725
 30
0.0
 10
16.348823
 20
71.141268
 30
0.0
 10
18.281933
 20
70.295344
 30
0.0
 10
20.399715
 20
70.295344
 30
0.0
  0
LWPOLYLINE
  5
12c
100
AcDbEntity
  8
0
 62
7
100
AcDbPolyline
 90
2
 70
0
 10
6.531368
 20
102.175266
 30
0.0
 10
6.751785
 20
98.910721
 30
0.0
  0
SPLINE
  5
12d
100
AcDbEntity
  8
0
 62
7
100
AcDbSpline
 70
8
 71
3
 72
8
 73
4
 74
0
 40
0
 40
0
 40
0
 40
0
 40
1
 40
1
 40
1
 40
1
 10
51.862633
 20
70.325119
 30
0.0
 10
51.972841
 20
70.307269
 30
0.0
 10
52.354101
 20
70.253644
 30
0.0
 10
52.917056
 20
70.253644
 30
0.0
  0
SPLINE
  5
12e
100
AcDbEntity
  8
0
 62
7
100
AcDbSpline
 70
8
 71
3
 72
8
 73
4
 74
0
 40
0
 40
0
 40
0
 40
0
 40
1
 40
1
 40
1
 40
1
 10
52.917056
 20
70.253644
 30
0.0
 10
54.096580
 20
70.253644
 30
0.0
 10
56.065433
 20
70.509799
 30
0.0
 10
57.852591
 20
71.927613
 30
0.0
  0
SPLINE
  5
12f
100
AcDbEntity
  8
0
 62
7
100
AcDbSpline
 70
8
 71
3
 72
8
 73
4
 74
0
 40
0
 40
0
 40
0
 40
0
 40
1
 40
1
 40
1
 40
1
 10
57.852591
 20
71.927613
 30
0.0
 10
59.875058
 20
73.509249
 30
0.0
 10
61.018839
 20
76.052970
 30
0.0
 10
61.260106
 20
79.454526
 30
0.0
  0
LWPOLYLINE
  5
130
100
AcDbEntity
  8
0
 62
7
100
AcDbPolyline
 90
2
 70
0
 10
20.399715
 20
70.295344
 30
0.0
 10
51.862633
 20
70.325119
 30
0.0
  0
SPLINE
  5
131
100
AcDbEntity
  8
0
 62
7
100
AcDbSpline
 70
8
 71
3
 72
8
 73
4
 74
0
 40
0
 40
0
 40
0
 40
0
 40
1
 40
1
 40
1
 40
1
 10
61.650301
 20
85.039397
 30
0.0
 10
62.052412
 20
85.051322
 30
0.0
 10
62.424737
 20
85.209174
 30
0.0
 10
62.764297
 20
85.429592
 30
0.0
  0
SPLINE
  5
132
100
AcDbEntity
  8
0
 62
7
100
AcDbSpline
 70
8
 71
3
 72
8
 73
4
 74
0
 40
0
 40
0
 40
0
 40
0
 40
1
 40
1
 40
1
 40
1
 10
62.764297
 20
85.429592
 30
0.0
 10
73.546817
 20
84.953020
 30
0.0
 10
86.378614
 20
84.670052
 30
0.0
 10
101.733279
 20
84.670052
 30
0.0
  0
SPLINE
  5
133
100
AcDbEntity
  8
0
 62
7
100
AcDbSpline
 70
8
 71
3
 72
8
 73
4
 74
0
 40
0
 40
0
 40
0
 40
0
 40
1
 40
1
 40
1
 40
1
 10
101.733279
 20
84.670052
 30
0.0
 10
122.940888
 20
84.670052
 30
0.0
 10
140.356739
 20
85.230024
 30
0.0
 10
143.484267
 20
85.343214
 30
0.0
  0
SPLINE
  5
134
100
AcDbEntity
  8
0
 62
7
100
AcDbSpline
 70
8
 71
3
 72
8
 73
4
 74
0
 40
0
 40
0
 40
0
 40
0
 40
1
 40
1
 40
1
 40
1
 10
143.484267
 20
85.343214
 30
0.0
 10
146.754768
 20
85.233009
 30
0.0
 10
164.164664
 20
84.670052
 30
0.0
 10
185.375258
 20
84.670052
 30
0.0
  0
SPLINE
  5
135
100
AcDbEntity
  8
0
 62
7
100
AcDbSpline
 70
8
 71
3
 72
8
 73
4
 74
0
 40
0
 40
0
 40
0
 40
0
 40
1
 40
1
 40
1
 40
1
 10
185.375258
 20
84.670052
 30
0.0
 10
185.387183
 20
84.670052
 30
0.0
 10
185.387183
 20
84.670052
 30
0.0
 10
185.393108
 20
84.670052
 30
0.0
  0
SPLINE
  5
136
100
AcDbEntity
  8
0
 62
7
100
AcDbSpline
 70
8
 71
3
 72
8
 73
4
 74
0
 40
0
 40
0
 40
0
 40
0
 40
1
 40
1
 40
1
 40
1
 10
185.393108
 20
84.670052
 30
0.0
 10
200.744803
 20
84.670052
 30
0.0
 10
213.567657
 20
84.953020
 30
0.0
 10
224.347198
 20
85.429592
 30
0.0
  0
SPLINE
  5
137
100
AcDbEntity
  8
0
 62
7
100
AcDbSpline
 70
8
 71
3
 72
8
 73
4
 74
0
 40
0
 40
0
 40
0
 40
0
 40
1
 40
1
 40
1
 40
1
 10
224.347198
 20
85.429592
 30
0.0
 10
224.683782
 20
85.209174
 30
0.0
 10
225.056105
 20
85.054292
 30
0.0
 10
225.452262
 20
85.042375
 30
0.0
  0
LWPOLYLINE
  5
138
100
AcDbEntity
  8
0
 62
7
100
AcDbPolyline
 90
2
 70
0
 10
61.260106
 20
79.454526
 30
0.0
 10
61.650301
 20
85.039397
 30
0.0
  0
SPLINE
  5
139
100
AcDbEntity
  8
0
 62
7
100
AcDbSpline
 70
8
 71
3
 72
8
 73
4
 74
0
 40
0
 40
0
 40
0
 40
0
 40
1
 40
1
 40
1
 40
1
 10
225.848412
 20
79.454526
 30
0.0
 10
226.092656
 20
76.052970
 30
0.0
 10
227.233458
 20
73.509249
 30
0.0
 10
229.258907
 20
71.927613
 30
0.0
  0
SPLINE
  5
13a
100
AcDbEntity
  8
0
 62
7
100
AcDbSpline
 70
8
 71
3
 72
8
 73
4
 74
0
 40
0
 40
0
 40
0
 40
0
 40
1
 40
1
 40
1
 40
1
 10
229.258907
 20
71.927613
 30
0.0
 10
231.084788
 20
70.485971
 30
0.0
 10
233.098319
 20
70.247689
 30
0.0
 10
234.152744
 20
70.247689
 30
0.0
  0
SPLINE
  5
13b
100
AcDbEntity
  8
0
 62
7
100
AcDbSpline
 70
8
 71
3
 72
8
 73
4
 74
0
 40
0
 40
0
 40
0
 40
0
 40
1
 40
1
 40
1
 40
1
 10
234.152744
 20
70.247689
 30
0.0
 10
234.617398
 20
70.247689
 30
0.0
 10
234.897388
 20
70.295314
 30
0.0
 10
234.891433
 20
70.307239
 30
0.0
  0
LWPOLYLINE
  5
13c
100
AcDbEntity
  8
0
 62
7
100
AcDbPolyline
 90
2
 70
0
 10
225.452262
 20
85.042375
 30
0.0
 10
225.848412
 20
79.454526
 30
0.0
  0
SPLINE
  5
13d
100
AcDbEntity
  8
0
 62
7
100
AcDbSpline
 70
8
 71
3
 72
8
 73
4
 74
0
 40
0
 40
0
 40
0
 40
0
 40
1
 40
1
 40
1
 40
1
 10
266.714760
 20
70.307239
 30
0.0
 10
268.832541
 20
70.307239
 30
0.0
 10
270.762673
 20
71.153156
 30
0.0
 10
272.311542
 20
72.758620
 30
0.0
  0
SPLINE
  5
13e
100
AcDbEntity
  8
0
 62
7
100
AcDbSpline
 70
8
 71
3
 72
8
 73
4
 74
0
 40
0
 40
0
 40
0
 40
0
 40
1
 40
1
 40
1
 40
1
 10
272.311542
 20
72.758620
 30
0.0
 10
277.404946
 20
78.060524
 30
0.0
 10
277.449623
 20
90.752323
 30
0.0
 10
277.366223
 20
94.046651
 30
0.0
  0
SPLINE
  5
13f
100
AcDbEntity
  8
0
 62
7
100
AcDbSpline
 70
8
 71
3
 72
8
 73
4
 74
0
 40
0
 40
0
 40
0
 40
0
 40
1
 40
1
 40
1
 40
1
 10
277.366223
 20
94.046651
 30
0.0
 10
280.148234
 20
95.955932
 30
0.0
 10
280.282266
 20
97.734151
 30
0.0
 10
280.356734
 20
98.922616
 30
0.0
  0
LWPOLYLINE
  5
140
100
AcDbEntity
  8
0
 62
7
100
AcDbPolyline
 90
2
 70
0
 10
234.891433
 20
70.307239
 30
0.0
 10
266.714760
 20
70.307239
 30
0.0
  0
SPLINE
  5
141
100
AcDbEntity
  8
0
 62
7
100
AcDbSpline
 70
8
 71
3
 72
8
 73
4
 74
0
 40
0
 40
0
 40
0
 40
0
 40
1
 40
1
 40
1
 40
1
 10
280.577151
 20
102.187153
 30
0.0
 10
282.998750
 20
136.703136
 30
0.0
 10
284.782931
 20
183.890068
 30
0.0
 10
272.695781
 20
195.846155
 30
0.0
  0
SPLINE
  5
142
100
AcDbEntity
  8
0
 62
7
100
AcDbSpline
 70
8
 71
3
 72
8
 73
4
 74
0
 40
0
 40
0
 40
0
 40
0
 40
1
 40
1
 40
1
 40
1
 10
272.695781
 20
195.846155
 30
0.0
 10
272.591531
 20
195.953383
 30
0.0
 10
272.496214
 20
196.054655
 30
0.0
 10
272.380054
 20
196.146995
 30
0.0
  0
LWPOLYLINE
  5
143
100
AcDbEntity
  8
0
 62
7
100
AcDbPolyline
 90
2
 70
0
 10
280.356734
 20
98.922616
 30
0.0
 10
280.577151
 20
102.187153
 30
0.0
  0
LWPOLYLINE
  5
144
100
AcDbEntity
  8
0
 62
7
100
AcDbPolyline
 90
1
 70
1
 10
272.380054
 20
196.146995
 30
0.0
  0
ENDSEC
  0
SECTION
  2
OBJECTS
  0
DICTIONARY
  5
C
330
0
100
AcDbDictionary
  3
ACAD_GROUP
350
D
  3
ACAD_MLINESTYLE
350
17
  0
DICTIONARY
  5
D
330
C
100
AcDbDictionary
  0
DICTIONARY
  5
1A
330
C
100
AcDbDictionary
  0
DICTIONARY
  5
17
330
C
100
AcDbDictionary
  3
STANDARD
350
18
  0
DICTIONARY
  5
19
330
C
100
AcDbDictionary
  0
ENDSEC
  0
EOF
