<?xml version="1.0" encoding="UTF-8" standalone="no"?>
<svg
   xmlns:dc="http://purl.org/dc/elements/1.1/"
   xmlns:cc="http://creativecommons.org/ns#"
   xmlns:rdf="http://www.w3.org/1999/02/22-rdf-syntax-ns#"
   xmlns:svg="http://www.w3.org/2000/svg"
   xmlns="http://www.w3.org/2000/svg"
   xmlns:sodipodi="http://sodipodi.sourceforge.net/DTD/sodipodi-0.dtd"
   xmlns:inkscape="http://www.inkscape.org/namespaces/inkscape"
   version="1.1"
   x="0px"
   y="0px"
   viewBox="0 0 377.95275 377.95275"
   enable-background="new 0 0 100 100"
   xml:space="preserve"
   id="svg30"
   sodipodi:docname="screengraphic.svg"
   width="100mm"
   height="100mm"
   inkscape:version="1.0.2 (e86c870879, 2021-01-15, custom)"><metadata
     id="metadata36"><rdf:RDF><cc:Work
         rdf:about=""><dc:format>image/svg+xml</dc:format><dc:type
           rdf:resource="http://purl.org/dc/dcmitype/StillImage" /><dc:title></dc:title></cc:Work></rdf:RDF></metadata><defs
     id="defs34" /><sodipodi:namedview
     pagecolor="#ffffff"
     bordercolor="#666666"
     borderopacity="1"
     objecttolerance="10"
     gridtolerance="10"
     guidetolerance="10"
     inkscape:pageopacity="0"
     inkscape:pageshadow="2"
     inkscape:window-width="1920"
     inkscape:window-height="986"
     id="namedview32"
     showgrid="false"
     inkscape:document-units="mm"
     units="mm"
     inkscape:zoom="1.1313709"
     inkscape:cx="80.140649"
     inkscape:cy="-42.572734"
     inkscape:window-x="-11"
     inkscape:window-y="-11"
     inkscape:window-maximized="1"
     inkscape:current-layer="svg30" /><path
     d="m 363.17366,116.42323 c -4.45996,-4.28124 -8.56248,-8.26064 -12.30757,-11.99779 l 16.9661,-3.63389 c 0.71486,-0.15489 1.34235,-0.56792 1.75935,-1.147755 l 6.32258,-8.765023 c 2.82371,-3.907922 2.73634,-7.283667 2.17239,-9.424287 -1.4893,-5.615651 -7.51004,-8.510849 -8.18916,-8.828566 -0.45275,-0.19063 -0.96507,-0.285946 -1.42973,-0.254174 l -29.20218,2.19622 c -1.13981,0.08737 -2.12076,0.822093 -2.52188,1.89836 l -3.201,8.56645 c -2.47423,-3.379716 -4.53542,-6.648232 -6.05252,-9.884976 -1.17158,-2.486137 -3.38766,-6.731633 -6.32654,-11.771422 -0.0318,-0.06354 -0.0755,-0.146944 -0.0834,-0.170773 -0.0278,-0.05957 -0.0794,-0.08737 -0.10723,-0.142973 -5.50048,-9.368686 -13.48709,-21.334709 -22.09326,-29.952788 -0.0477,-0.04766 -0.0556,-0.111201 -0.0993,-0.158859 -0.0556,-0.05957 -0.15488,-0.115172 -0.23828,-0.174744 -5.21454,-5.158933 -10.63956,-9.090684 -15.86203,-10.361552 -16.09238,-3.90395 -73.20602,-4.400384 -90.33495,-4.459956 h -1.92218 c -17.12099,0.05957 -74.22668,0.556006 -90.32303,4.459956 -5.218507,1.270868 -10.643528,5.202619 -15.850119,10.353609 -0.0834,0.05957 -0.182687,0.115172 -0.242259,0.174744 -0.04766,0.04766 -0.06354,0.115173 -0.103258,0.166802 -8.582336,8.598221 -16.557037,20.520559 -22.057516,29.873359 -0.04369,0.07943 -0.111201,0.123115 -0.154887,0.206516 -0.01589,0.03574 -0.06752,0.142973 -0.115173,0.254174 -2.922998,5.004046 -5.119218,9.221741 -6.286829,11.695964 -1.529014,3.228801 -3.574318,6.50526 -6.056484,9.881005 l -3.193058,-8.558507 c -0.405089,-1.076267 -1.386041,-1.810988 -2.52188,-1.89836 l -29.202182,-2.19622 c -0.456718,-0.03177 -0.984923,0.06354 -1.433699,0.254173 -0.67912,0.317718 -6.6998609,3.212915 -8.1851888,8.828567 -0.5639481,2.14062 -0.6513203,5.516365 2.1684198,9.424286 l 6.326544,8.765023 c 0.420975,0.579837 1.048466,0.992867 1.755387,1.147757 l 16.962127,3.63389 c -3.74112,3.74509 -7.859529,7.73244 -12.33537,12.02956 -0.103258,0.0834 -0.19063,0.18269 -0.285946,0.28198 C 3.0888739,132.55532 5.4836672,195.61822 8.7084968,241.71898 l 0.2938884,4.35273 c 0.103258,1.5727 0.2859454,3.95558 3.9873508,6.50129 -0.103258,4.38846 -0.03972,21.3069 6.747519,28.38406 2.06119,2.14061 4.638671,3.26851 7.462383,3.26851 l 41.950584,-0.0397 c 0.146944,0.0238 0.655291,0.0953 1.405898,0.0953 1.5727,0 4.197839,-0.34154 6.580718,-2.23196 2.696624,-2.10885 4.221667,-5.50048 4.543356,-10.03589 l 0.520261,-7.4465 c 0.536148,-0.0159 1.032581,-0.22637 1.485328,-0.52026 14.376703,0.63543 31.485777,1.01272 51.958677,1.01272 28.27683,0 51.49798,-0.74663 55.66802,-0.89755 4.36067,0.14694 27.57388,0.89755 55.85469,0.89755 0.0159,0 0.0159,0 0.0238,0 20.46894,0 37.56609,-0.37729 51.93882,-1.01272 0.44878,0.29389 0.94521,0.5004 1.47342,0.51629 l 0.5282,7.45047 c 0.32566,4.53541 1.84673,7.92704 4.54733,10.03589 2.43451,1.92219 5.11922,2.2399 6.52512,2.2399 0.61954,0 0.99286,-0.0635 0.98492,-0.0794 h 42.43113 c 2.82371,0 5.39722,-1.12789 7.46238,-3.26851 6.79121,-7.06921 6.85078,-23.99162 6.73958,-28.38406 3.70935,-2.54571 3.88806,-4.91667 3.98735,-6.50129 l 0.29389,-4.35272 c 3.2288,-46.02134 5.60771,-108.93729 -10.5085,-124.87875 -0.139,-0.14297 -0.26609,-0.278 -0.42097,-0.40112 z m -21.59683,-36.168127 26.50953,-1.993675 c 1.4059,0.810178 3.79672,2.553652 4.36464,4.710157 0.35743,1.358241 -0.0635,2.831654 -1.25498,4.491727 l -5.67126,7.859529 -19.48797,4.170038 c -3.062,-3.189086 -5.78643,-6.199457 -8.22888,-9.102598 z M 101.48986,28.093882 c 15.866,-3.860263 76.8955,-4.25741 88.9489,-4.297125 h 1.90233 c 12.06928,0.03972 73.09879,0.436862 88.96082,4.297125 1.61241,0.393175 3.31617,1.183497 5.04773,2.231964 -19.89704,-1.902332 -59.80232,-2.160477 -94.64398,-1.934104 -35.00052,-0.234316 -75.26721,0.01986 -95.271474,1.930132 1.743473,-1.044495 3.439288,-1.834817 5.055674,-2.227992 z M 66.981802,65.71557 c 0.004,-0.01192 0.004,-0.02383 0.0079,-0.03574 5.730824,-9.749947 13.387808,-20.790619 21.013021,-28.447604 5.631537,-2.327278 56.299487,-3.300287 102.364507,-3.01037 0.0278,0 0.0516,0.01589 0.0794,0.01589 0.008,0 0.0159,0 0.0199,0 0.41303,-0.004 0.83401,-0.004 1.24704,-0.0079 0.20652,0 0.417,0 0.62352,0.004 0.004,0 0.0119,0 0.0159,0 0.0119,0 0.0238,-0.0079 0.0397,-0.0079 46.39863,-0.293888 97.38429,0.687064 102.09445,2.704568 7.72053,7.664927 15.50857,18.86843 21.3228,28.745463 0.008,0.01986 0.008,0.03972 0.0159,0.05957 2.00162,4.158124 6.55292,16.529237 3.69346,23.650074 -0.90946,2.279621 -2.52982,3.828492 -4.92858,4.730015 l -15.09157,5.655366 H 192.41258 c -0.0199,0 -0.0397,-0.01192 -0.0596,-0.01192 H 83.308494 L 68.216927,94.103601 c -2.398764,-0.901522 -4.011179,-2.450394 -4.928588,-4.722072 -2.855483,-7.10495 1.695816,-19.484007 3.693463,-23.665959 z m -49.694941,29.611242 -5.66728,-7.859529 c -1.195411,-1.660072 -1.616387,-3.133486 -1.262926,-4.491727 0.571891,-2.156505 2.962713,-3.907921 4.368611,-4.710157 l 26.509529,1.993675 3.76892,10.127236 c -2.446423,2.907112 -5.170848,5.921454 -8.228876,9.106569 z m 7.009636,24.714428 c 5.687137,-5.46077 10.754727,-10.41715 15.282197,-15.0598 0.01191,-0.0119 0.02383,-0.0278 0.03574,-0.0397 7.152608,-7.347211 12.82386,-13.908071 16.946241,-20.262415 0.07546,2.398765 0.452747,4.749872 1.306612,6.874606 1.548871,3.840406 4.336839,6.541002 8.304333,8.02633 l 15.588,5.842029 c 0.333603,0.12311 0.683092,0.1946 1.028609,0.1946 h 107.662451 1.91424 107.66642 c 0.34551,0 0.695,-0.0715 1.02463,-0.18269 l 15.588,-5.842024 c 3.96353,-1.485328 6.75547,-4.185924 8.30037,-8.026331 0.8618,-2.132677 1.24306,-4.479812 1.31058,-6.88652 6.73957,10.377438 17.5777,21.251305 32.26021,35.361925 0.0635,1.90233 0.0715,4.19784 -0.0318,6.7912 l -84.48101,20.96934 c -0.45274,0.11517 -0.87769,0.3336 -1.23115,0.64338 l -8.91594,7.82775 h -53.83718 c -0.49643,-0.90152 -1.42178,-1.53695 -2.52585,-1.53695 h -34.08708 c -1.09216,0 -2.01353,0.63146 -2.51394,1.52504 h -51.94279 l -8.908,-7.82776 c -0.35743,-0.30977 -0.77443,-0.5282 -1.23115,-0.64338 l -84.477,-20.9614 c -0.09929,-2.59734 -0.09531,-4.8849 -0.03574,-6.78723 z m 309.905323,27.25219 c 1.72362,-0.59175 3.39163,-1.15967 5.01199,-1.70376 2.20019,1.48533 7.51401,6.43775 6.27491,18.7056 -0.28991,0.16283 -0.56394,0.37332 -0.86975,0.50835 -2.27962,1.0167 -5.15099,2.23196 -8.38376,3.5624 2.56557,-2.45833 4.18195,-5.89762 4.18195,-9.73406 -0.008,-4.75781 -2.49011,-8.92785 -6.21534,-11.33853 z M 46.580386,168.37794 c -3.236744,-1.34236 -6.108113,-2.5616 -8.391705,-3.57035 -0.305803,-0.13503 -0.575862,-0.34949 -0.865779,-0.50835 -1.239097,-12.30757 4.106494,-17.24807 6.2908,-18.71354 1.616386,0.54409 3.292345,1.10804 5.01596,1.70376 -3.733177,2.39876 -6.227257,6.58072 -6.227257,11.35045 -0.004,3.82849 1.616387,7.27175 4.177981,9.73803 z M 31.38159,158.18319 c -2.990513,-4.9683 -4.813415,-11.73965 -5.857911,-18.49114 2.672796,0.83798 6.735605,2.1287 11.707879,3.76495 -2.597338,2.80385 -5.317792,7.44649 -5.849968,14.72619 z m 24.527768,-7.22013 c 4.237553,0 7.680813,3.44326 7.680813,7.67685 0,4.23755 -3.44326,7.67287 -7.680813,7.67287 -4.225639,0 -7.668899,-3.43929 -7.668899,-7.67287 0,-4.23359 3.44326,-7.67685 7.668899,-7.67685 z m 0,21.19174 c 2.946827,0 5.659337,-0.96904 7.879386,-2.57351 0.254174,2.52983 1.175554,4.84519 2.633081,6.77135 -3.602118,-1.41781 -7.168494,-2.8396 -10.564096,-4.19784 0.01589,0 0.03177,0 0.05163,0 z M 25.79771,133.64748 v -0.42892 l 80.9186,20.0837 9.20188,8.08193 c 0.53218,0.46863 1.21924,0.72281 1.92616,0.72281 h 52.64177 v 10.71898 h -49.19056 c -19.98442,-15.31 -82.975821,-35.29838 -95.49785,-39.1785 z m 46.307282,22.07737 c -1.004781,0.41303 -1.938075,0.94918 -2.811798,1.5727 -0.09531,-0.98889 -0.289917,-1.9341 -0.591748,-2.85548 1.135839,0.42494 2.267707,0.85386 3.403546,1.28278 z m 5.059646,4.84122 c 4.22961,0 7.676842,3.44326 7.680813,7.67684 0,4.23755 -3.447231,7.68081 -7.680813,7.68081 -4.233582,0 -7.668899,-3.44723 -7.668899,-7.68081 0,-4.23358 3.44326,-7.67684 7.668899,-7.67684 z m 13.522838,7.67684 c 0,-1.99765 -0.46069,-3.87615 -1.243069,-5.57991 6.294772,2.66882 12.184453,5.37736 17.232183,8.02633 l -20.862101,13.20909 c -1.985733,-0.76252 -4.054866,-1.5727 -6.183571,-2.39479 6.278886,-1.16364 11.056558,-6.65618 11.056558,-13.26072 z m 21.787454,5.69508 c 2.3114,1.39796 4.34876,2.76017 5.96911,4.07869 0.52027,0.41701 1.17159,0.64338 1.83879,0.64338 h 50.20726 v 1.64419 c 0,1.62036 1.30661,2.923 2.91506,2.923 h 34.09105 c 1.62036,0 2.923,-1.30264 2.923,-2.923 v -1.64022 h 52.10959 c 0.66721,0 1.31059,-0.23034 1.83879,-0.63146 1.62433,-1.31853 3.66169,-2.69265 5.97308,-4.08267 l 19.85733,12.56969 c -7.6689,2.93888 -12.96286,4.94447 -13.12172,5.01199 -0.28198,0.0993 -0.55204,0.25417 -0.78635,0.44877 l -16.25521,12.99067 h -67.67773 -1.9063 -67.68171 l -16.24726,-12.99464 c -0.23829,-0.1946 -0.50835,-0.34949 -0.7943,-0.45274 -0.16283,-0.0635 -5.44885,-2.06914 -13.113773,-5.00802 z m 63.85322,3.4512 V 160.5899 h 28.24505 v 16.79929 z m 99.81482,-6.69192 c 5.04774,-2.64499 10.92153,-5.34956 17.21233,-8.01838 -0.77046,1.70375 -1.23512,3.57034 -1.23512,5.56005 0,6.60454 4.7737,12.10105 11.05258,13.26866 -2.12076,0.82209 -4.19783,1.62433 -6.18357,2.39082 z m 21.81923,-2.45436 c 0,-4.23358 3.45121,-7.67684 7.68479,-7.67684 4.23358,0 7.6689,3.44326 7.6689,7.67684 0,4.23755 -3.44326,7.68081 -7.6689,7.68081 -4.24153,-0.004 -7.68479,-3.4512 -7.68479,-7.68081 z m 12.76826,-12.51012 c 1.12393,-0.42891 2.25182,-0.84989 3.38369,-1.27086 -0.30183,0.91343 -0.49643,1.86261 -0.58778,2.83959 -0.87372,-0.62352 -1.7951,-1.15966 -2.79591,-1.56873 z m -49.21836,17.08127 h -51.0929 v -10.69912 h 54.5441 v 0.004 c 0.70692,0 1.39796,-0.25815 1.93013,-0.72281 l 9.20586,-8.08987 80.91065,-20.09164 v 0.43289 c -12.52203,3.87615 -75.51343,23.86453 -95.49784,39.16658 z m 57.50284,-3.24071 c 2.23196,1.60447 4.9405,2.58145 7.88733,2.58145 0.0159,0 0.0318,-0.008 0.0477,-0.008 -3.39164,1.36618 -6.95801,2.77605 -10.55616,4.19784 1.44959,-1.92616 2.37097,-4.24153 2.62117,-6.77135 z m 7.88733,-3.26454 c -4.24153,0 -7.68479,-3.43929 -7.68479,-7.67287 0,-4.23359 3.44723,-7.67685 7.68479,-7.67685 4.22166,0 7.66492,3.44326 7.67287,7.67685 0,4.24152 -3.44723,7.67287 -7.67287,7.67287 z m 18.6778,-22.8399 c 4.9683,-1.63227 9.02714,-2.92697 11.69199,-3.76495 -1.0445,6.74752 -2.8674,13.5149 -5.85394,18.47923 -0.52423,-7.27175 -3.23674,-11.9144 -5.83805,-14.71428 z M 12.32253,180.33999 c 1.76333,7.21615 4.174009,14.74605 7.422668,21.20365 l -6.366258,20.76679 c -0.826065,-15.76274 -1.179526,-29.75421 -1.05641,-41.97044 z m 20.055898,39.25793 c 2.823711,-6.37023 7.525926,-9.87703 9.384571,-11.05656 l 67.356041,15.11143 -7.76818,9.603 z m 64.826222,18.78503 -8.395677,10.3695 c -6.521145,-0.57984 -32.458783,-2.99052 -49.532111,-6.12003 -3.022284,-0.55601 -5.599765,-1.46547 -7.811871,-2.59734 -1.374127,-5.35353 -1.67993,-10.33375 -0.841951,-14.82945 z M 26.349744,218.77186 c -1.830845,4.86504 -2.414651,10.19475 -1.814959,15.91763 -3.824521,-4.28124 -5.198648,-8.91991 -5.579909,-10.58793 l 5.925426,-19.345 9.51563,2.13267 c -2.787968,2.57351 -5.996912,6.44172 -8.046188,11.88263 z m 49.488425,52.84034 c -0.190631,2.79988 -0.957123,4.75781 -2.27565,5.83408 -1.513128,1.22321 -3.463117,0.97698 -3.93175,0.94521 H 27.199638 c -1.243069,0 -2.27565,-0.46466 -3.244687,-1.48136 -3.963522,-4.13429 -4.996103,-14.86916 -5.119219,-21.44591 8.772966,3.30426 25.512691,6.49335 57.562413,8.22888 z m 5.417078,-13.51887 c -0.520262,-0.0318 -0.988895,-0.0556 -1.501214,-0.0834 -0.01191,-0.004 -0.01589,-0.008 -0.02383,-0.008 -0.0079,0 -0.01986,0.004 -0.0278,0.004 -62.026339,-3.10171 -64.790479,-11.20747 -64.865937,-12.31949 l -0.301831,-4.37258 c -0.353461,-5.06362 -0.655292,-9.92866 -0.917409,-14.6825 1.179526,3.93175 4.646614,12.26785 13.487095,17.60947 0.07149,0.0556 0.139002,0.0834 0.210488,0.13106 2.998456,1.77524 6.572774,3.22086 10.917557,4.01912 14.845336,2.72443 36.215789,4.89285 46.160337,5.83408 z m 165.907943,1.12393 c -28.18548,0 -51.30338,-0.74664 -55.85071,-0.89756 -4.35669,0.14695 -27.48651,0.89756 -55.66802,0.89756 -12.89138,0 -24.33317,-0.15489 -34.62323,-0.42098 l 22.64529,-29.31735 h 66.7643 c 0.008,0 0.0119,0.004 0.0199,0.004 h 68.70237 l 22.64529,29.31735 c -10.29404,0.26212 -21.73583,0.41701 -34.63515,0.41701 z m 41.83939,-0.63544 -26.11636,-33.80511 c -0.55203,-0.7228 -1.40192,-1.13187 -2.31139,-1.13187 h -68.17417 c -0.0119,0 -0.0238,-0.008 -0.0397,-0.008 h -70.12813 c -0.90549,0 -1.75539,0.41303 -2.31139,1.13187 l -26.116354,33.81305 c -1.783188,-0.0556 -3.586233,-0.1112 -5.293963,-0.17871 l 30.838427,-38.0943 h 71.10114 1.91027 71.10908 l 30.83842,38.0943 c -1.71567,0.0635 -3.51871,0.12311 -5.30587,0.17871 z m 67.4593,-39.80599 c -2.05325,-5.44488 -5.25822,-9.31309 -8.04619,-11.8866 l 9.51563,-2.13267 5.9294,19.33706 c -0.3892,1.62433 -1.77127,6.23123 -5.56799,10.52041 0.57586,-5.68714 -0.0119,-11.00096 -1.83085,-15.8382 z m -5.11127,21.23542 c -2.22005,1.13981 -4.79356,2.06913 -7.81982,2.62117 -17.07333,3.12951 -43.01891,5.54416 -49.54402,6.12003 l -8.39171,-10.3695 66.58955,-13.17732 c 0.83798,4.4957 0.53218,9.464 -0.834,14.80562 z m -0.92138,-20.41333 -68.97244,13.6539 -7.77215,-9.603 67.35207,-15.11143 c 1.86262,1.17556 6.5688,4.68236 9.39252,11.06053 z m 8.42347,57.31221 c -0.96903,1.0167 -2.00162,1.48136 -3.24071,1.48136 l -42.91962,0.0397 c -0.008,0.008 -1.90631,0.23035 -3.39561,-0.94123 -1.34632,-1.06833 -2.1287,-3.04612 -2.32727,-5.8738 l -0.55998,-7.91116 c 32.05369,-1.7395 48.79739,-4.92859 57.56241,-8.23682 -0.11517,6.56483 -1.14775,17.2997 -5.11922,21.44194 z m 9.41635,-35.59624 -0.30183,4.37656 c -0.0715,1.11598 -2.8396,9.2138 -64.83814,12.32345 -0.0159,0.004 -0.0318,-0.004 -0.0477,-0.004 -0.008,0 -0.0159,0.008 -0.0318,0.008 -0.51232,0.0318 -0.97698,0.0556 -1.49724,0.0834 l -3.13349,-3.88012 c 9.93661,-0.92932 31.315,-3.10965 46.16034,-5.83011 4.32095,-0.79429 7.88733,-2.23196 10.87784,-3.99529 0.0874,-0.0596 0.18269,-0.0953 0.26609,-0.17077 8.82459,-5.34162 12.28771,-13.66184 13.46724,-17.59757 -0.26212,4.75782 -0.56395,9.62286 -0.92138,14.68648 z m 1.15569,-19.00346 -6.36626,-20.76282 c 3.24469,-6.44966 5.65934,-13.97558 7.4187,-21.18379 0.12709,12.20828 -0.2224,26.19181 -1.05244,41.94661 z m -0.29389,-69.48872 c -0.30977,3.5624 -2.83165,29.17835 -11.21541,45.94191 l -88.3373,19.80569 -2.44642,-3.02625 c -0.55203,-0.67515 -1.39001,-1.08024 -2.27168,-1.08024 h -72.50306 -1.91028 -72.49909 c -0.88166,0 -1.71567,0.40112 -2.26771,1.08024 l -2.45039,3.02625 -88.341265,-19.80569 C 16.508454,181.99609 13.978631,156.3166 13.672828,152.79788 c 1.048467,-10.20269 2.688682,-18.14562 4.912702,-23.84467 0.663235,13.26866 3.832464,35.23483 17.224243,41.18806 16.537181,7.35912 62.463201,24.80577 67.415617,26.68824 l 16.69207,13.34413 c 0.52026,0.41303 1.16364,0.63543 1.82687,0.63543 h 68.70237 1.91028 68.6984 c 0.66721,0 1.31058,-0.23035 1.83084,-0.63543 l 16.68413,-13.34413 c 4.95242,-1.88247 50.87844,-19.32912 67.41562,-26.68824 13.39575,-5.95323 16.56498,-27.91146 17.23218,-41.18012 2.22799,5.69905 3.86821,13.64595 4.9127,23.86056 z"
     id="path24"
     style="fill:none;stroke:#000000;stroke-width:3.97146" /></svg>
